<?xml version="1.0" encoding="UTF-8"?>
<svg xmlns="http://www.w3.org/2000/svg" xmlns:xlink="http://www.w3.org/1999/xlink" width="12px" height="12px" viewBox="0 0 12 12" version="1.1">
<g id="surface1">
<path style=" stroke:none;fill-rule:evenodd;fill:rgb(55.294118%,55.294118%,55.294118%);fill-opacity:1;" d="M 10.738281 3.15625 C 10.492188 3.277344 10.386719 3.574219 10.507812 3.820312 C 11.613281 6.109375 10.824219 8.859375 8.679688 10.214844 C 6.53125 11.566406 3.710938 11.097656 2.121094 9.117188 C 0.53125 7.136719 0.683594 4.28125 2.472656 2.476562 C 4.257812 0.675781 7.113281 0.503906 9.105469 2.074219 C 9.320312 2.246094 9.636719 2.210938 9.808594 1.996094 C 9.980469 1.78125 9.945312 1.46875 9.730469 1.296875 C 7.539062 -0.441406 4.433594 -0.4375 2.25 1.3125 C 0.0664062 3.058594 -0.621094 6.085938 0.597656 8.605469 C 1.8125 11.125 4.609375 12.46875 7.335938 11.847656 C 10.0625 11.222656 12 8.796875 12 6 C 12.003906 5.097656 11.800781 4.203125 11.40625 3.390625 C 11.347656 3.269531 11.246094 3.175781 11.121094 3.132812 C 10.996094 3.089844 10.855469 3.097656 10.738281 3.15625 Z M 6 1.996094 C 5.722656 2 5.5 2.226562 5.5 2.503906 L 5.5 6 C 5.5 6.132812 5.554688 6.257812 5.648438 6.351562 C 5.742188 6.445312 5.867188 6.5 6 6.496094 L 8.5 6.496094 C 8.773438 6.496094 9 6.273438 9 6 C 9 5.726562 8.773438 5.503906 8.5 5.503906 L 6.5 5.503906 L 6.5 2.503906 C 6.5 2.226562 6.277344 2 6 1.996094 Z M 6 1.996094 "/>
</g>
</svg>
