<svg xmlns="http://www.w3.org/2000/svg" width="24" height="24" viewBox="0 0 24 24"><path fill-rule="evenodd" d="M11.1 5H15c.7 0 1.2.2 1.7.4.4.1.8.4 1.2.8.4.4.7.8.8 1.2l.4 1.7a49.8 49.8 0 0 1-.4 7.5c-.1.4-.4.8-.8 1.2-.4.4-.8.7-1.2.8l-1.7.4a49.8 49.8 0 0 1-7.5-.4 3.4 3.4 0 0 1-1.2-.8c-.4-.4-.7-.8-.8-1.2L5 14.9V11v-2c0-.7.2-1.2.4-1.7.1-.4.4-.8.8-1.2.4-.4.8-.7 1.2-.8L9.1 5H13zm.9 3.4a3.6 3.6 0 1 0 0 7.2 3.6 3.6 0 0 0 0-7.2zm3.7-1a.8.8 0 1 0 0 1.7.8.8 0 0 0 0-1.7zm-3.7 7a2.3 2.3 0 1 1 0-4.7 2.3 2.3 0 0 1 0 4.6z"></path></svg>