<svg xmlns="http://www.w3.org/2000/svg" width="24" height="24" viewBox="0 0 24 24"><path fill-rule="evenodd" d="M19.3 15.3l-1.5-1.5c-.5-.5-.5-.8-.2-1.3.5-.6 1-1.2 1.3-1.8.4-.5.8-1 1-1.7.2-.4 0-.6-.4-.7a1.3 1.3 0 0 0-.2 0h-2.5c-.3 0-.5.1-.6.4l-.5 1.1c-.4.8-.9 1.6-1.5 2.3-.1.2-.3.3-.5.3-.3-.1-.4-.6-.4-.8v-3c0-.3-.1-.5-.5-.6H10c-.3 0-.5.1-.7.4-.1 0-.1.2 0 .2.5 0 .8.4.8.8a9 9 0 0 1 0 2.1 2 2 0 0 1 0 .6c-.2.3-.4.4-.7.2l-.5-.6a14.2 14.2 0 0 1-1.6-3c-.1-.2-.3-.4-.6-.4a64.6 64.6 0 0 0-2.3 0c-.5 0-.6.2-.4.7.8 1.8 1.7 3.6 3 5.2a6 6 0 0 0 5.6 2.8c.5 0 .6-.1.7-.7 0-.3 0-.7.2-1 .2-.4.5-.5.8-.2a2.2 2.2 0 0 1 .4.3l1 1c.3.5.8.7 1.4.7h2.3c.4 0 .6-.5.4-1a4.5 4.5 0 0 0-.6-.8"></path></svg>